<?xml version="1.0" encoding="utf-8"?>
<!-- Generator: Adobe Illustrator 19.1.0, SVG Export Plug-In . SVG Version: 6.00 Build 0)  -->
<svg version="1.1" id="Layer_1" xmlns="http://www.w3.org/2000/svg" xmlns:xlink="http://www.w3.org/1999/xlink" x="0px" y="0px"
	 viewBox="513.2 -280.3 1825 1592.2" enable-background="new 513.2 -280.3 1825 1592.2" xml:space="preserve">
<g id="Kraken_Full">
	<path fill="#149287" d="M2280.1,78.9c-7.3-19.5-29.4-29-48.5-20.9c-13.8,5.9-22.2,19.4-22.2,33.6c0,4.2,0.8,8.5,2.3,12.8
		c34.6,92,53.6,191.6,53.6,295.7c0,426.4-317.8,778.5-729.5,832.4V840.4c25-4.9,49-11.4,73-19.5v329.4c338-82.2,589-386.9,589-750.2
		c0-291-161-544.3-398.7-675.9c-18.2-10.1-41.1-2.7-50.3,16c-2.5,5.2-3.7,10.7-3.7,16.1c0,12.8,6.8,25.3,18.7,31.9
		c215.2,119.1,361,348.5,361,612c0,295.7-183.6,548.5-443,650.6V758.6c45-14.1,78.8-56.2,78.8-106.1c0-41.4-21.4-77.4-54.9-96.6
		c26.2-252,141.1-185.6,141.1-265.7v-47c0-120.5-278.4-512.5-408.8-521.9c-4-0.3-8-0.4-12-0.4s-8.2,0.2-12.2,0.4
		c-130.4,9.4-409,401.4-409,521.9v47c0,80.1,114.9,13.7,141.1,265.7c-33.5,19.2-54.8,55.2-54.8,96.6c0,49.9,33.7,92,78.7,106.1
		v292.2c-259.4-102.1-443-355-443-650.6c0-263.4,145.7-492.8,361-612c17-9.4,23.5-30.5,15-48c-6.3-13-19.4-20.5-32.8-20.5
		c-5.9,0-11.9,1.4-17.5,4.5C814.7-144.2,653.7,109.1,653.7,400.1c0,363.3,251,668,589,750.2V820.9c24,8.1,48,14.6,73,19.5v392.1
		c-411.7-53.9-729.5-406-729.5-832.4c0-104.1,18.9-203.7,53.6-295.7c6.9-18.3-2-38.7-19.9-46.3c-4.7-2-9.5-2.9-14.3-2.9
		c-14.8,0-28.7,9-34.2,23.8c-37.6,99.8-58.2,208-58.2,321.1c0,491.6,388.5,892.4,875.5,911.8v-462c13,0.8,37,1.2,37,1.2
		s24-0.4,37-1.2v462c487-19.4,875.5-420.2,875.5-911.8C2338.2,287,2317.7,178.8,2280.1,78.9z M1594.1,599.4c13.6-13.6,32.3-22,53-22
		c20.8,0,39.4,8.4,53,22s21.9,32.3,22,53c0,20.8-8.4,39.4-22,53s-32.3,22-53,22c-20.8,0-39.4-8.4-53-22s-22-32.3-22-53
		C1572.2,631.7,1580.5,613,1594.1,599.4z M1257.4,705.5c-13.6,13.6-32.3,22-53,22c-20.8,0-39.4-8.4-53-22s-22-32.3-22-53
		c0-20.8,8.4-39.4,22-53s32.3-22,53-22c20.8,0,39.4,8.4,53,22s22,32.3,22,53C1279.3,673.2,1271,691.8,1257.4,705.5z"/>
</g>
</svg>
